<svg xmlns="http://www.w3.org/2000/svg" viewBox="0 0 960 605" width="960" height="605"
     font-family="'Courier New',Courier,monospace">
  <rect width="960" height="605" fill="#f0f2f5"/>
  <rect x="0" y="0" width="960" height="30" fill="#1a2b3c"/>
  <text x="480" y="20" text-anchor="middle" font-size="12" font-weight="bold" fill="#ffffff" letter-spacing="0.5">
    INMP441 I²S Microphone Wiring — Arduino UNO Q
  </text>

  <!-- ═══════════════ ARDUINO UNO Q BOARD x=40 y=95 w=305 h=238 ═══════════════ -->
  <rect x="40" y="160" width="305" height="238" rx="8" fill="#1a3c5e" stroke="#0a2040" stroke-width="2"/>
  <circle cx="56"  cy="176" r="4" fill="none" stroke="#3a6a8a" stroke-width="1.5"/>
  <circle cx="329" cy="176" r="4" fill="none" stroke="#3a6a8a" stroke-width="1.5"/>
  <circle cx="56"  cy="382" r="4" fill="none" stroke="#3a6a8a" stroke-width="1.5"/>
  <circle cx="329" cy="382" r="4" fill="none" stroke="#3a6a8a" stroke-width="1.5"/>
  <!-- USB-C -->
  <rect x="18" y="262" width="24" height="40" rx="3" fill="#aaa" stroke="#666" stroke-width="1"/>
  <rect x="21" y="266" width="18" height="32" rx="2" fill="#888"/>
  <text x="30" y="283" text-anchor="middle" font-size="4.5" fill="white">USB</text>
  <text x="30" y="291" text-anchor="middle" font-size="4.5" fill="white">-C</text>
  <!-- RA4M1 -->
  <rect x="143" y="233" width="88" height="64" rx="3" fill="#0a1f35" stroke="#3a6a9a" stroke-width="1"/>
  <text x="187" y="268" text-anchor="middle" font-size="9" fill="#7ab8e0">RA4M1</text>
  <text x="192" y="215" text-anchor="middle" font-size="11" font-weight="bold" fill="#89c4e8">Arduino UNO Q</text>
  <text x="192" y="174" text-anchor="middle" font-size="7" fill="#3a8ab8">DIGITAL / MISC HEADER</text>
  <text x="175" y="389" text-anchor="middle" font-size="7" fill="#3a8ab8">POWER / ANALOG HEADER</text>

  <!-- ── TOP HEADER: 18 pins, step=15, first x=68. Rect y=87..95, stubs to y=80 ── -->
  <!-- SCL=68 SDA=83 AREF=98 GND=113 D13=128 D12=143 D11=158  inactive -->
  <rect x="64"  y="152" width="8" height="8" fill="#2a5a7a" stroke="#4a8aaa" stroke-width="0.6"/>
  <line x1="68"  y1="112" x2="68"  y2="105" stroke="#4a8aaa" stroke-width="0.6"/>
  <text x="68"  y="145" text-anchor="start" font-size="8" fill="#6aaac8" transform="rotate(-90,68,145)">SCL</text>
  <rect x="79"  y="152" width="8" height="8" fill="#2a5a7a" stroke="#4a8aaa" stroke-width="0.6"/>
  <line x1="83"  y1="112" x2="83"  y2="105" stroke="#4a8aaa" stroke-width="0.6"/>
  <text x="83"  y="145" text-anchor="start" font-size="8" fill="#6aaac8" transform="rotate(-90,83,145)">SDA</text>
  <rect x="94"  y="152" width="8" height="8" fill="#2a5a7a" stroke="#4a8aaa" stroke-width="0.6"/>
  <line x1="98"  y1="112" x2="98"  y2="105" stroke="#4a8aaa" stroke-width="0.6"/>
  <text x="98"  y="145" text-anchor="start" font-size="8" fill="#6aaac8" transform="rotate(-90,98,145)">AREF</text>
  <rect x="109" y="152" width="8" height="8" fill="#2a5a7a" stroke="#4a8aaa" stroke-width="0.6"/>
  <line x1="113" y1="152" x2="113" y2="145" stroke="#4a8aaa" stroke-width="0.6"/>
  <text x="113" y="145" text-anchor="start" font-size="8" fill="#6aaac8" transform="rotate(-90,113,145)">GND</text>
  <rect x="124" y="152" width="8" height="8" fill="#2a5a7a" stroke="#4a8aaa" stroke-width="0.6"/>
  <line x1="128" y1="152" x2="128" y2="145" stroke="#4a8aaa" stroke-width="0.6"/>
  <text x="128" y="145" text-anchor="start" font-size="8" fill="#6aaac8" transform="rotate(-90,128,145)">D13</text>
  <rect x="139" y="152" width="8" height="8" fill="#2a5a7a" stroke="#4a8aaa" stroke-width="0.6"/>
  <line x1="143" y1="152" x2="143" y2="145" stroke="#4a8aaa" stroke-width="0.6"/>
  <text x="143" y="145" text-anchor="start" font-size="8" fill="#6aaac8" transform="rotate(-90,143,145)">D12</text>
  <rect x="154" y="152" width="8" height="8" fill="#2a5a7a" stroke="#4a8aaa" stroke-width="0.6"/>
  <line x1="158" y1="152" x2="158" y2="145" stroke="#4a8aaa" stroke-width="0.6"/>
  <text x="158" y="145" text-anchor="start" font-size="8" fill="#6aaac8" transform="rotate(-90,158,145)">D11</text>

  <!-- D10=173 ACTIVE amber (WS) — stub stops before label, resumes above it -->
  <rect x="169" y="152" width="8" height="8" fill="#664400" stroke="#cc8800" stroke-width="1.2"/>
  <line x1="173" y1="152" x2="173" y2="148" stroke="#cc8800" stroke-width="2"/>
  <line x1="173" y1="128" x2="173" y2="100" stroke="#cc8800" stroke-width="2"/>
  <text x="173" y="145" text-anchor="start" font-size="8" font-weight="bold" fill="#cc8800" transform="rotate(-90,173,145)">D10</text>

  <!-- D9=188 ACTIVE green (SCK) — stub stops before label, resumes above it -->
  <rect x="184" y="152" width="8" height="8" fill="#003300" stroke="#228800" stroke-width="1.2"/>
  <line x1="188" y1="152" x2="188" y2="148" stroke="#228800" stroke-width="2"/>
  <line x1="188" y1="128" x2="188" y2="81" stroke="#228800" stroke-width="2"/>
  <text x="188" y="145" text-anchor="start" font-size="8" font-weight="bold" fill="#228800" transform="rotate(-90,188,145)">D9</text>

  <!-- D8=203 ACTIVE blue (SD) — stub stops before label, resumes above it -->
  <rect x="199" y="152" width="8" height="8" fill="#001166" stroke="#1144cc" stroke-width="1.2"/>
  <line x1="203" y1="152" x2="203" y2="148" stroke="#1144cc" stroke-width="2"/>
  <line x1="203" y1="128" x2="203" y2="62" stroke="#1144cc" stroke-width="2"/>
  <text x="203" y="145" text-anchor="start" font-size="8" font-weight="bold" fill="#1144cc" transform="rotate(-90,203,145)">D8</text>

  <!-- D7=218 ACTIVE purple (L/R) — stub stops before label, resumes above it -->
  <rect x="214" y="152" width="8" height="8" fill="#330066" stroke="#8822bb" stroke-width="1.2"/>
  <line x1="218" y1="152" x2="218" y2="148" stroke="#8822bb" stroke-width="2"/>
  <line x1="218" y1="128" x2="218" y2="43" stroke="#8822bb" stroke-width="2"/>
  <text x="218" y="145" text-anchor="start" font-size="8" font-weight="bold" fill="#8822bb" transform="rotate(-90,218,145)">D7</text>
  <rect x="229" y="152" width="8" height="8" fill="#2a5a7a" stroke="#4a8aaa" stroke-width="0.6"/>
  <line x1="233" y1="152" x2="233" y2="145" stroke="#4a8aaa" stroke-width="0.6"/>
  <text x="233" y="145" text-anchor="start" font-size="8" fill="#6aaac8" transform="rotate(-90,233,145)">D6</text>
  <rect x="244" y="152" width="8" height="8" fill="#2a5a7a" stroke="#4a8aaa" stroke-width="0.6"/>
  <line x1="248" y1="152" x2="248" y2="145" stroke="#4a8aaa" stroke-width="0.6"/>
  <text x="248" y="145" text-anchor="start" font-size="8" fill="#6aaac8" transform="rotate(-90,248,145)">D5</text>
  <rect x="259" y="152" width="8" height="8" fill="#2a5a7a" stroke="#4a8aaa" stroke-width="0.6"/>
  <line x1="263" y1="152" x2="263" y2="145" stroke="#4a8aaa" stroke-width="0.6"/>
  <text x="263" y="145" text-anchor="start" font-size="8" fill="#6aaac8" transform="rotate(-90,263,145)">D4</text>
  <rect x="274" y="152" width="8" height="8" fill="#2a5a7a" stroke="#4a8aaa" stroke-width="0.6"/>
  <line x1="278" y1="152" x2="278" y2="145" stroke="#4a8aaa" stroke-width="0.6"/>
  <text x="278" y="145" text-anchor="start" font-size="8" fill="#6aaac8" transform="rotate(-90,278,145)">D3</text>
  <rect x="289" y="152" width="8" height="8" fill="#2a5a7a" stroke="#4a8aaa" stroke-width="0.6"/>
  <line x1="293" y1="152" x2="293" y2="145" stroke="#4a8aaa" stroke-width="0.6"/>
  <text x="293" y="145" text-anchor="start" font-size="8" fill="#6aaac8" transform="rotate(-90,293,145)">D2</text>
  <rect x="304" y="152" width="8" height="8" fill="#2a5a7a" stroke="#4a8aaa" stroke-width="0.6"/>
  <line x1="308" y1="152" x2="308" y2="145" stroke="#4a8aaa" stroke-width="0.6"/>
  <text x="308" y="145" text-anchor="start" font-size="8" fill="#6aaac8" transform="rotate(-90,308,145)">TX</text>
  <rect x="319" y="152" width="8" height="8" fill="#2a5a7a" stroke="#4a8aaa" stroke-width="0.6"/>
  <line x1="323" y1="152" x2="323" y2="145" stroke="#4a8aaa" stroke-width="0.6"/>
  <text x="323" y="145" text-anchor="start" font-size="8" fill="#6aaac8" transform="rotate(-90,323,145)">RX</text>

  <!-- ── BOTTOM HEADER: 13 pins, step=15, first x=68. Rect y=333..341, stubs to y=348 ── -->
  <!-- IOREF RST 5V GND GND VIN A0 A1 A2 A3 A4 A5 inactive -->
  <rect x="64"  y="398" width="8" height="8" fill="#2a5a7a" stroke="#4a8aaa" stroke-width="0.6"/>
  <line x1="68"  y1="366" x2="68"  y2="373" stroke="#4a8aaa" stroke-width="0.6"/>
  <text x="68"  y="415" text-anchor="start" font-size="8" fill="#6aaac8" transform="rotate(90,68,415)">IOREF</text>
  <rect x="79"  y="398" width="8" height="8" fill="#2a5a7a" stroke="#4a8aaa" stroke-width="0.6"/>
  <line x1="83"  y1="366" x2="83"  y2="373" stroke="#4a8aaa" stroke-width="0.6"/>
  <text x="83"  y="415" text-anchor="start" font-size="8" fill="#6aaac8" transform="rotate(90,83,415)">RST</text>

  <!-- 3.3V=98 ACTIVE red — stub stops before label, resumes below it -->
  <rect x="94"  y="398" width="8" height="8" fill="#550000" stroke="#cc2200" stroke-width="1.2"/>
  <line x1="98"  y1="406" x2="98"  y2="412" stroke="#cc2200" stroke-width="2"/>
  <text x="98"  y="415" text-anchor="start" font-size="8" font-weight="bold" fill="#cc2200" transform="rotate(90,98,415)">3.3V</text>

  <rect x="109" y="398" width="8" height="8" fill="#2a5a7a" stroke="#4a8aaa" stroke-width="0.6"/>
  <line x1="113" y1="406" x2="113" y2="413" stroke="#4a8aaa" stroke-width="0.6"/>
  <text x="113" y="415" text-anchor="start" font-size="8" fill="#6aaac8" transform="rotate(90,113,415)">5V</text>

  <!-- GND=128 ACTIVE — stub stops before label, resumes below it, wire continues down to GND bus -->
  <rect x="124" y="398" width="8" height="8" fill="#222" stroke="#666" stroke-width="1.2"/>
  <line x1="128" y1="406" x2="128" y2="412" stroke="#444" stroke-width="2"/>
  <line x1="128" y1="436" x2="128" y2="455" stroke="#444" stroke-width="2"/>
  <text x="128" y="415" text-anchor="start" font-size="8" font-weight="bold" fill="#444" transform="rotate(90,128,415)">GND</text>

  <rect x="139" y="398" width="8" height="8" fill="#2a5a7a" stroke="#4a8aaa" stroke-width="0.6"/>
  <line x1="143" y1="406" x2="143" y2="413" stroke="#4a8aaa" stroke-width="0.6"/>
  <text x="143" y="415" text-anchor="start" font-size="8" fill="#6aaac8" transform="rotate(90,143,415)">GND</text>
  <rect x="154" y="398" width="8" height="8" fill="#2a5a7a" stroke="#4a8aaa" stroke-width="0.6"/>
  <line x1="158" y1="406" x2="158" y2="413" stroke="#4a8aaa" stroke-width="0.6"/>
  <text x="158" y="415" text-anchor="start" font-size="8" fill="#6aaac8" transform="rotate(90,158,415)">VIN</text>
  <rect x="169" y="398" width="8" height="8" fill="#2a5a7a" stroke="#4a8aaa" stroke-width="0.6"/>
  <line x1="173" y1="406" x2="173" y2="413" stroke="#4a8aaa" stroke-width="0.6"/>
  <text x="173" y="415" text-anchor="start" font-size="8" fill="#6aaac8" transform="rotate(90,173,415)">A0</text>
  <rect x="184" y="398" width="8" height="8" fill="#2a5a7a" stroke="#4a8aaa" stroke-width="0.6"/>
  <line x1="188" y1="406" x2="188" y2="413" stroke="#4a8aaa" stroke-width="0.6"/>
  <text x="188" y="415" text-anchor="start" font-size="8" fill="#6aaac8" transform="rotate(90,188,415)">A1</text>
  <rect x="199" y="398" width="8" height="8" fill="#2a5a7a" stroke="#4a8aaa" stroke-width="0.6"/>
  <line x1="203" y1="406" x2="203" y2="413" stroke="#4a8aaa" stroke-width="0.6"/>
  <text x="203" y="415" text-anchor="start" font-size="8" fill="#6aaac8" transform="rotate(90,203,415)">A2</text>
  <rect x="214" y="398" width="8" height="8" fill="#2a5a7a" stroke="#4a8aaa" stroke-width="0.6"/>
  <line x1="218" y1="406" x2="218" y2="413" stroke="#4a8aaa" stroke-width="0.6"/>
  <text x="218" y="415" text-anchor="start" font-size="8" fill="#6aaac8" transform="rotate(90,218,415)">A3</text>
  <rect x="229" y="398" width="8" height="8" fill="#2a5a7a" stroke="#4a8aaa" stroke-width="0.6"/>
  <line x1="233" y1="406" x2="233" y2="413" stroke="#4a8aaa" stroke-width="0.6"/>
  <text x="233" y="415" text-anchor="start" font-size="8" fill="#6aaac8" transform="rotate(90,233,415)">A4</text>
  <rect x="244" y="398" width="8" height="8" fill="#2a5a7a" stroke="#4a8aaa" stroke-width="0.6"/>
  <line x1="248" y1="406" x2="248" y2="413" stroke="#4a8aaa" stroke-width="0.6"/>
  <text x="248" y="415" text-anchor="start" font-size="8" fill="#6aaac8" transform="rotate(90,248,415)">A5</text>

  <!-- ═══════════════ INMP441 MODULE — circle centre (735,210) r=65 ═══════════════ -->
  <!-- Circle board -->
  <circle cx="735" cy="235" r="65" fill="#1a4c1a" stroke="#0a2c0a" stroke-width="2.5"/>
  <!-- PCB silkscreen ring -->
  <circle cx="735" cy="235" r="58" fill="none" stroke="#2a6c2a" stroke-width="0.5"/>
  <!-- MEMS die -->
  <circle cx="735" cy="223" r="22" fill="#0a2c0a" stroke="#2a8c2a" stroke-width="1"/>
  <circle cx="735" cy="223" r="9" fill="none" stroke="#3aac3a" stroke-width="1.5"/>
  <circle cx="735" cy="223" r="3" fill="#2a8c2a"/>
  <!-- Acoustic port -->
  <circle cx="735" cy="216" r="2.5" fill="#0a1a0a"/>
  <text x="735" y="261" text-anchor="middle" font-size="8.5" font-weight="bold" fill="#6ad86a">INMP441</text>
  <text x="735" y="273" text-anchor="middle" font-size="6.5" fill="#4ab84a">I²S MEMS Mic</text>

  <!-- Left pins (circle edge x≈670, stubs to x=650). Top→Bottom: L/R, WS, SCK -->
  <!-- L/R pin on INMP441 — purple to match D7 wire -->
  <rect x="664" y="209" width="8" height="8" fill="#330066" stroke="#8822bb" stroke-width="1"/>
  <line x1="664" y1="213" x2="650" y2="213" stroke="#444" stroke-width="2"/>
  <text x="674" y="217" font-size="7" fill="#9ae89a">L/R</text>
  <!-- WS y=210 (amber) -->
  <rect x="664" y="231" width="8" height="8" fill="#664400" stroke="#cc8800" stroke-width="1"/>
  <line x1="664" y1="235" x2="650" y2="235" stroke="#cc8800" stroke-width="2"/>
  <text x="674" y="239" font-size="7" font-weight="bold" fill="#9ae89a">WS</text>
  <!-- SCK y=232 (green) -->
  <rect x="664" y="253" width="8" height="8" fill="#003300" stroke="#228800" stroke-width="1"/>
  <line x1="664" y1="257" x2="650" y2="257" stroke="#228800" stroke-width="2"/>
  <text x="674" y="261" font-size="7" font-weight="bold" fill="#9ae89a">SCK</text>

  <!-- Right pins (circle edge x≈800, stubs to x=820). Top→Bottom: GND, VDD, SD -->
  <!-- GND y=188 — stub extended to GND bus vertical at x=850 -->
  <rect x="800" y="209" width="8" height="8" fill="#222" stroke="#555" stroke-width="1"/>
  <line x1="808" y1="213" x2="850" y2="213" stroke="#444" stroke-width="2"/>
  <text x="796" y="217" text-anchor="end" font-size="7" fill="#9ae89a">GND</text>
  <!-- VDD y=210 (red) -->
  <rect x="800" y="231" width="8" height="8" fill="#550000" stroke="#cc2200" stroke-width="1"/>
  <line x1="808" y1="235" x2="820" y2="235" stroke="#cc2200" stroke-width="2"/>
  <text x="796" y="239" text-anchor="end" font-size="7" font-weight="bold" fill="#9ae89a">VDD</text>
  <!-- SD y=232 (blue) -->
  <rect x="800" y="253" width="8" height="8" fill="#001166" stroke="#1144cc" stroke-width="1"/>
  <line x1="808" y1="257" x2="820" y2="257" stroke="#1144cc" stroke-width="2"/>
  <text x="796" y="261" text-anchor="end" font-size="7" font-weight="bold" fill="#9ae89a">SD</text>

  <!-- D7 → L/R (purple): up to y=43, right to x=460, down to y=213, right to module -->
  <line x1="218" y1="43" x2="460" y2="43" stroke="#8822bb" stroke-width="2"/>
  <line x1="460" y1="43" x2="460" y2="213" stroke="#8822bb" stroke-width="2"/>
  <text x="339" y="38" text-anchor="middle" font-size="8" fill="#8822bb">L/R (ch. select)</text>
  <line x1="460" y1="213" x2="650" y2="213" stroke="#8822bb" stroke-width="2"/>
  <text x="339" y="14" text-anchor="middle" font-size="8" fill="#8822bb">L/R (ch. select)</text>

  <!-- ═══════════════ WIRES (orthogonal, crossings without dots = not connected) ═══════════════ -->

  <!-- GND bus: Arduino GND → Module right GND, all wired together -->
  <!-- Rail stops at x=850 (GND right vertical); cap handles the tap to 3.3V vertical -->
  <line x1="128" y1="455" x2="850" y2="455" stroke="#444" stroke-width="2"/>
  <!-- Junction dot at (850,430) removed — rail ends here, no T-junction -->
  <!-- right vertical: GND rail up to module GND pin -->
  <line x1="850" y1="455" x2="850" y2="213" stroke="#444" stroke-width="2"/>
  <text x="490" y="449" text-anchor="middle" font-size="7.5" fill="#555">GND</text>

  <!-- D10 → WS (amber): up to y=58, right to x=480, down to y=210, right to module -->
  <line x1="173" y1="100" x2="480" y2="100" stroke="#cc8800" stroke-width="2"/>
  <line x1="480" y1="100" x2="480" y2="235" stroke="#cc8800" stroke-width="2"/>
  <line x1="480" y1="235" x2="650" y2="235" stroke="#cc8800" stroke-width="2"/>
  <text x="326" y="95" text-anchor="middle" font-size="8" fill="#cc8800">WS / LRCLK</text>

  <!-- D9 → SCK (green): up to y=48, right to x=500, down to y=232, right to module -->
  <line x1="188" y1="81" x2="500" y2="81" stroke="#228800" stroke-width="2"/>
  <line x1="500" y1="81" x2="500" y2="257" stroke="#228800" stroke-width="2"/>
  <line x1="500" y1="257" x2="650" y2="257" stroke="#228800" stroke-width="2"/>
  <text x="344" y="76" text-anchor="middle" font-size="8" fill="#228800">SCK (bit clock)</text>

  <!-- D8 → SD (blue): up to y=36, right to x=910, down to y=232, left to module right -->
  <line x1="203" y1="62" x2="910" y2="62" stroke="#1144cc" stroke-width="2"/>
  <line x1="910" y1="62" x2="910" y2="257" stroke="#1144cc" stroke-width="2"/>
  <line x1="910" y1="257" x2="820" y2="257" stroke="#1144cc" stroke-width="2"/>
  <text x="556" y="75" text-anchor="middle" font-size="8" fill="#1144cc">SD (data in)</text>

  <!-- 3.3V → VDD (red): resumes below label at y=371, down to y=510, right to x=930, up to y=210, left to module right -->
  <line x1="98"  y1="436" x2="98"  y2="495" stroke="#cc2200" stroke-width="2"/>
  <line x1="98"  y1="495" x2="930" y2="495" stroke="#cc2200" stroke-width="2"/>
  <line x1="930" y1="495" x2="930" y2="235" stroke="#cc2200" stroke-width="2"/>
  <line x1="930" y1="235" x2="820" y2="235" stroke="#cc2200" stroke-width="2"/>
  <text x="484" y="508" text-anchor="middle" font-size="8" fill="#cc2200">3.3 V supply</text>

  <!-- C1 100nF: horizontal bypass between GND vertical (x=850) and 3.3V vertical (x=930) at y=330 -->
  <!-- junction on GND vertical -->
  <circle cx="850" cy="355" r="3.5" fill="#444"/>
  <!-- left wire (black) -->
  <line x1="850" y1="355" x2="882" y2="355" stroke="#333" stroke-width="1.5"/>
  <!-- left plate (GND side) -->
  <line x1="883" y1="344" x2="883" y2="366" stroke="#222" stroke-width="3.5" stroke-linecap="square"/>
  <!-- right plate (3.3V side) -->
  <line x1="897" y1="344" x2="897" y2="366" stroke="#222" stroke-width="3.5" stroke-linecap="square"/>
  <!-- right wire (black) -->
  <line x1="898" y1="355" x2="930" y2="355" stroke="#333" stroke-width="1.5"/>
  <!-- junction on 3.3V vertical -->
  <circle cx="930" cy="355" r="3.5" fill="#cc2200"/>
  <text x="890" y="339" text-anchor="middle" font-size="8" fill="#555">C1 100nF</text>

  <!-- ═══ LEGEND ═══ -->
  <rect x="0" y="560" width="960" height="45" fill="#e8eaed" stroke="#ccc" stroke-width="1"/>
  <line x1="12"  y1="577" x2="37"  y2="577" stroke="#cc2200" stroke-width="2.5"/>
  <text x="40"  y="581" font-size="8.5" fill="#cc2200">3.3V→VDD</text>
  <line x1="118" y1="577" x2="143" y2="577" stroke="#444"   stroke-width="2.5"/>
  <text x="146" y="581" font-size="8.5" fill="#444">GND→GND</text>
  <line x1="224" y1="577" x2="249" y2="577" stroke="#8822bb" stroke-width="2.5"/>
  <text x="252" y="581" font-size="8.5" fill="#8822bb">D7→L/R</text>
  <line x1="318" y1="577" x2="343" y2="577" stroke="#1144cc" stroke-width="2.5"/>
  <text x="346" y="581" font-size="8.5" fill="#1144cc">D8→SD</text>
  <line x1="406" y1="577" x2="431" y2="577" stroke="#228800" stroke-width="2.5"/>
  <text x="434" y="581" font-size="8.5" fill="#228800">D9→SCK</text>
  <line x1="498" y1="577" x2="523" y2="577" stroke="#cc8800" stroke-width="2.5"/>
  <text x="526" y="581" font-size="8.5" fill="#cc8800">D10→WS</text>
  <text x="610" y="581" font-size="8" fill="#666">⚠ 3.3V only — 5V destroys INMP441</text>
  <text x="12"  y="595" font-size="8" fill="#666">Wires crossing without a dot are NOT connected.  C1=100nF ceramic at VDD/GND.  D7→L/R: firmware drives D7 LOW = left channel mono capture.</text>
</svg>
